PathFileType	4	(X/Y/Z)	pose_F01_0-84.trc
DataRate	CameraRate	NumFrames	NumMarkers	Units	OrigDataRate	OrigDataStartFrame	OrigNumFrames
30	30	5	21	m	30	31	84
Frame#	Time	CHip			RHip			RKnee			RAnkle			RBigToe			RSmallToe			RHeel			LHip			LKnee			LAnkle			LBigToe			LSmallToe			LHeel			Neck			Nose			RShoulder			RElbow			RWrist			LShoulder			LElbow			LWrist			
		X1	Y1	Z1	X2	Y2	Z2	X3	Y3	Z3	X4	Y4	Z4	X5	Y5	Z5	X6	Y6	Z6	X7	Y7	Z7	X8	Y8	Z8	X9	Y9	Z9	X10	Y10	Z10	X11	Y11	Z11	X12	Y12	Z12	X13	Y13	Z13	X14	Y14	Z14	X15	Y15	Z15	X16	Y16	Z16	X17	Y17	Z17	X18	Y18	Z18	X19	Y19	Z19	X20	Y20	Z20	X21	Y21	Z21	
31	1.0333333333333334	-0.1580222738099308	1.839813850304538	-0.6894572319049659	-0.16726648513477912	1.8393211386551753	-0.6298025267626263	-0.17638377263815075	1.720373290308304	-0.5803143543624413	-0.16751965493612614	1.6056658825793146	-0.5279856686035096	-0.19495890880990857	1.5738434466746274	-0.48147292420960647	-0.1903701602215947	1.5799385297389568	-0.45997823494215134	-0.16601456690887917	1.5941321602817438	-0.5367587682166397	-0.1467553941453389	1.8400725142393672	-0.7457424225099267	-0.13910943483948424	1.7090190426778533	-0.7681745231973649	-0.14439633458960358	1.565138063628752	-0.7823939949514076	-0.2887906238491545	1.4718565574999052	-1.169781361081397	-0.27002009065279114	1.4728634821199285	-1.2054794662721553	-0.2596435220653978	1.4716574459999847	-1.3072527338295599	-0.14847020629064378	1.994056484498379	-0.7233653225415656	-0.18038124409779138	2.0563261770299217	-0.688070941967487	-0.1539996406857452	1.9927927342026686	-0.6493396060233847	-0.1630015223683733	1.914676538589127	-0.601830566508047	-0.19448131201417101	1.9437428434395236	-0.6127519043703991	-0.1429327704388089	1.9953024451947283	-0.7911909109567618	-0.15093248595003975	1.9070721368738048	-0.7998115972954493	-0.1850832779234275	1.935526631606276	-0.6782015058466857
32	1.0666666666666667	-0.15939327273483567	1.8377889376019665	-0.6629850795811018	-0.16942924570042792	1.8375238013664217	-0.6062646394783616	-0.1711116297419495	1.7174376508096914	-0.5640945836553891	-0.1707219503381023	1.5995604354350645	-0.519370495043704	-0.19837257474248365	1.5698582800029115	-0.4727137651172034	-0.19478977344357198	1.5762432252196965	-0.4544471197874531	-0.16803496166400106	1.5897242506429552	-0.534070354214709	-0.14943423274840884	1.8394038374859394	-0.7228454539495865	-0.14417179770690605	1.71106443760934	-0.7431656102409978	-0.2685675157890382	1.4878307752898732	-1.2777720250032074	-0.29194830060385984	1.4738700055179172	-1.1688415027146999	-0.2747296287046375	1.4750078860253575	-1.1989209756126167	-0.2604127600386031	1.4696836635757116	-1.3109877407666897	-0.14803518614776898	1.9908892149389648	-0.6996950146850615	-0.1783731405616179	2.0545370515217307	-0.6705895274771005	-0.15323104283370728	1.990488212820696	-0.6252047497598321	-0.16438642429758013	1.9131454142872166	-0.576398756230674	-0.192142071457848	1.928047950887024	-0.5927719300259076	-0.14067652710659	1.989822655277416	-0.7697928497171698	-0.14602298204425676	1.9065096074212744	-0.7810594307217014	-0.18030103935128208	1.9250173607635284	-0.6671906565362596
33	1.1	-0.15891796678521358	1.8400036760966216	-0.6392566540487339	-0.16849827087910585	1.8383914848580385	-0.5820367105315367	-0.1739591154369212	1.7184771565626378	-0.5522755273696511	-0.17286336525037826	1.600799768222869	-0.5168977891137723	-0.201002519894789	1.5703161703721864	-0.47436000036884096	-0.19663692142003242	1.575439723589486	-0.4523222787546659	-0.16838266162220764	1.5923800214118624	-0.5336732083931061	-0.15000102604483162	1.8416882679699638	-0.7022564662412595	-0.14518329541570948	1.7133294524616574	-0.7217183469236587	-0.27303492178087535	1.4902438712567916	-1.2823617663379736	-0.2929411366108992	1.474307372463644	-1.173143251539383	-0.27343083599547985	1.476282987418282	-1.2067629767271602	-0.2631410424194948	1.4700352044607905	-1.306740597016973	-0.15292396186061954	1.988700163965584	-0.6748007232826922	-0.18446143427416029	2.051413190242664	-0.6525358831446534	-0.15971938615772727	1.987632389157661	-0.5977006573513909	-0.16577132622678692	1.9116142899853064	-0.5509669459533011	-0.19323155648335777	1.9234967923526183	-0.5656739810911622	-0.14469545643425208	1.9874300608585345	-0.7508505852246565	-0.14388833976312268	1.9047190516860075	-0.7599593083016862	-0.19047591782608927	1.9271308781738703	-0.6530264050743984
34	1.1333333333333333	-0.1652840553837124	1.8396788428645063	-0.6200627787001579	-0.17645751151547145	1.839131523162711	-0.5608367624190956	-0.18167922194078603	1.7181424942979042	-0.5393285818077505	-0.17521291097016176	1.5993370757061636	-0.513989792394009	-0.20168586380332085	1.5710192848927285	-0.4735144564508105	-0.19690948738535236	1.5763494456267537	-0.45223574662688887	-0.1705064828859913	1.5898081932108536	-0.5310465250957427	-0.15458998552578823	1.841428988782433	-0.6854908648697036	-0.1516962714006506	1.7140231758473643	-0.694503252113525	-0.14061504545017545	1.5751008228423364	-0.7465198132126905	-0.17550374034139624	1.543222289171277	-0.7076932097165697	-0.2815173262011531	1.4819459066836225	-1.1978191946098118	-0.26493056037166135	1.4736036921748137	-1.3130797270970007	-0.15643568673140118	1.9861841977294594	-0.6555805854624033	-0.18404897805587972	2.0511153558598147	-0.6408814273307785	-0.16899015798508502	1.9849321121087424	-0.5715357089844788	-0.16715622815599374	1.910083165683396	-0.5255351356759281	-0.19636613651433887	1.9226231906738165	-0.5459959939032255	-0.1461262461367375	1.9872873297088527	-0.7341273950562935	-0.1499409814486473	1.9067551546133126	-0.7384566967924667	-0.18800704487387293	1.9376654895017156	-0.6454265322109308
35	1.1666666666666667	-0.1699649020341116	1.8366272083712651	-0.6060815066857237	-0.180084999854412	1.8348435181431064	-0.5433875843361334	-0.1797746131383078	1.7167158031706526	-0.5325406041179216	-0.17494829358411368	1.6005519600433686	-0.5145518464419901	-0.2016861628818801	1.5711565481060195	-0.47346793933699705	-0.19683893146169149	1.5761356896037673	-0.452201956933037	-0.17026419745488677	1.591133263287706	-0.5316413187533894	-0.1579610398771719	1.83973764635319	-0.6653949575728022	-0.15729667150453844	1.7172178590728417	-0.6723525776810624	-0.13708405899711276	1.5815571590171151	-0.7136014842971475	-0.17313405088921976	1.5521111528978344	-0.669074577129869	-0.29746582648061426	1.4844729616306327	-1.204674630081115	-0.12708279041743648	1.5669248934174376	-0.7173192550282455	-0.15811381730177196	1.9869901185661818	-0.6415764730650518	-0.18444845880588423	2.0509092136650096	-0.6323131586024605	-0.1733851435674756	1.9859553612185095	-0.5586712527670812	-0.16029247725709803	1.9115191046560909	-0.5202234622149527	-0.19845143114976405	1.923156386616184	-0.5526336705532241	-0.14599399610257544	1.9882110934612283	-0.7229058723037163	-0.15487499282344153	1.9101532355416186	-0.7255126448555967	-1.515709943163372	1.860857800266678	0.7530463796971663
